<?xml version="1.0" encoding="UTF-8" standalone="no"?>
<!-- Created with Inkscape (http://www.inkscape.org/) -->

<svg
   width="230"
   height="72"
   viewBox="0 0 60.854165 19.05"
   version="1.1"
   id="svg1"
   inkscape:version="1.4 (86a8ad7, 2024-10-11)"
   sodipodi:docname="paper_heading_medtek_report.svg"
   inkscape:export-filename="paper_heading_medtek_report.svg.96dpi.png"
   inkscape:export-xdpi="96"
   inkscape:export-ydpi="96"
   xmlns:inkscape="http://www.inkscape.org/namespaces/inkscape"
   xmlns:sodipodi="http://sodipodi.sourceforge.net/DTD/sodipodi-0.dtd"
   xmlns="http://www.w3.org/2000/svg"
   xmlns:svg="http://www.w3.org/2000/svg"
   xmlns:rdf="http://www.w3.org/1999/02/22-rdf-syntax-ns#"
   xmlns:cc="http://creativecommons.org/ns#"
   xmlns:dc="http://purl.org/dc/elements/1.1/">
  <sodipodi:namedview
     id="namedview1"
     pagecolor="#ffffff"
     bordercolor="#000000"
     borderopacity="0.25"
     inkscape:showpageshadow="2"
     inkscape:pageopacity="0.0"
     inkscape:pagecheckerboard="0"
     inkscape:deskcolor="#d1d1d1"
     inkscape:document-units="mm"
     inkscape:zoom="9.2070302"
     inkscape:cx="95.796362"
     inkscape:cy="79.55877"
     inkscape:window-width="3840"
     inkscape:window-height="2066"
     inkscape:window-x="-11"
     inkscape:window-y="-11"
     inkscape:window-maximized="1"
     inkscape:current-layer="g7"
     showgrid="false" />
  <defs
     id="defs1">
    <rect
       x="71.57574"
       y="5.1047948"
       width="107.39268"
       height="80.978634"
       id="rect10" />
    <rect
       x="66.68817"
       y="9.449301"
       width="39.643619"
       height="32.366571"
       id="rect9" />
    <rect
       x="93.624109"
       y="4.5617315"
       width="131.85576"
       height="62.886727"
       id="rect8" />
  </defs>
  <g
     inkscape:label="Layer 1"
     inkscape:groupmode="layer"
     id="layer1">
    <g
       id="g7"
       transform="matrix(1.0754349,0,0,1.0754349,-23.847606,-1.4369447)">
      <path
         id="path2"
         style="baseline-shift:baseline;display:inline;overflow:visible;vector-effect:none;fill:#000000;enable-background:accumulate;stop-color:#000000;stop-opacity:1"
         d="M 28.427331 3.5249053 L 28.427331 7.5247255 L 24.42703 7.5247255 L 24.42703 11.525026 L 28.427331 11.525026 L 28.427331 15.524846 L 32.427151 15.524846 L 32.427151 11.525026 L 36.427451 11.525026 L 36.427451 7.5247255 L 32.427151 7.5247255 L 32.427151 3.5249053 L 28.427331 3.5249053 z M 28.773783 3.9967726 L 29.364338 3.9967726 L 30.427241 5.424868 L 31.485819 3.9967726 L 32.080218 3.9967726 L 32.080218 7.3032073 L 31.538676 7.3032073 L 31.538676 4.8785206 L 30.427241 6.3710051 L 29.311481 4.8828452 L 29.311481 7.3032073 L 28.773783 7.3032073 L 28.773783 3.9967726 z M 24.830664 7.8716585 L 28.137579 7.8716585 L 28.137579 8.4823951 L 26.791652 8.4823951 L 26.791652 11.178093 L 26.180915 11.178093 L 26.180915 8.4823951 L 24.830664 8.4823951 L 24.830664 7.8716585 z M 28.773783 7.8716585 L 32.080218 7.8716585 L 32.080218 8.4823951 L 29.436896 8.4823951 L 29.436896 9.217105 L 31.56174 9.217105 L 31.56174 9.8326467 L 29.436896 9.8326467 L 29.436896 10.567357 L 32.080218 10.567357 L 32.080218 11.178093 L 28.773783 11.178093 L 28.773783 7.8716585 z M 32.775525 7.8716585 L 33.410288 7.8716585 L 33.410288 9.217105 L 34.216595 9.217105 L 35.390497 7.8716585 L 36.077155 7.8716585 L 36.077155 8.046086 L 34.78889 9.5251161 L 36.08196 11.003666 L 36.08196 11.178093 L 35.390497 11.178093 L 34.216595 9.8326467 L 33.410288 9.8326467 L 33.410288 11.178093 L 32.775525 11.178093 L 32.775525 7.8716585 z M 28.773783 11.746544 L 31.437287 11.746544 C 31.553629 11.746544 31.660779 11.775827 31.758752 11.833998 C 31.856725 11.89217 31.935073 11.970037 31.993244 12.06801 C 32.051416 12.162921 32.080218 12.268808 32.080218 12.385151 L 32.080218 14.414853 C 32.080218 14.531196 32.051416 14.638346 31.993244 14.736319 C 31.935073 14.83123 31.856725 14.907834 31.758752 14.966006 C 31.660779 15.024177 31.553629 15.05346 31.437287 15.05346 L 28.773783 15.05346 L 28.773783 11.746544 z M 29.430649 12.357761 C 29.415341 12.357761 29.401571 12.363775 29.389325 12.376021 C 29.38014 12.385206 29.37539 12.397232 29.37539 12.41254 L 29.37539 14.387464 C 29.37539 14.402772 29.38014 14.416541 29.389325 14.428788 C 29.401571 14.437973 29.415341 14.442723 29.430649 14.442723 L 31.409897 14.442723 C 31.425205 14.442723 31.438975 14.437973 31.451222 14.428788 C 31.463468 14.416541 31.469481 14.402772 31.469481 14.387464 L 31.469481 12.41254 C 31.469481 12.397232 31.463468 12.385206 31.451222 12.376021 C 31.438975 12.363775 31.425205 12.357761 31.409897 12.357761 L 29.430649 12.357761 z " />
      <circle
         style="fill:none;fill-opacity:1;stroke:#000000;stroke-width:1;stroke-dasharray:none;stroke-opacity:1"
         id="path3"
         cx="30.427084"
         cy="9.5249996"
         r="7.5" />
    </g>
    <text
       xml:space="preserve"
       style="font-style:normal;font-variant:normal;font-weight:normal;font-stretch:normal;font-size:3.175px;font-family:'Open Sans';-inkscape-font-specification:'Open Sans';text-align:start;letter-spacing:0px;writing-mode:lr-tb;direction:ltr;text-anchor:start;fill:none;fill-opacity:1;stroke:#34c1e5;stroke-width:1;stroke-dasharray:none;stroke-opacity:1"
       x="1.6092775"
       y="11.437365"
       id="text3"><tspan
         sodipodi:role="line"
         id="tspan3"
         style="stroke-width:1"
         x="1.6092775"
         y="11.437365" /></text>
    <text
       xml:space="preserve"
       style="font-style:normal;font-variant:normal;font-weight:bold;font-stretch:normal;font-size:1.41111px;font-family:'Open Sans';-inkscape-font-specification:'Open Sans Bold';text-align:start;letter-spacing:0px;writing-mode:lr-tb;direction:ltr;text-anchor:start;fill:#000000;fill-opacity:1;stroke:none;stroke-width:1;stroke-dasharray:none;stroke-opacity:1"
       x="1.0219975"
       y="18.663475"
       id="text4"><tspan
         sodipodi:role="line"
         style="font-size:1.41111px;fill:#000000;fill-opacity:1;stroke:none;stroke-width:1;-inkscape-font-specification:'Open Sans Bold';font-family:'Open Sans';font-weight:bold;font-style:normal;font-stretch:normal;font-variant:normal"
         x="1.0219975"
         y="18.663475"
         id="tspan14">A NanoTrasen company</tspan></text>
    <text
       xml:space="preserve"
       transform="scale(0.26458333)"
       id="text8"
       style="font-style:normal;font-variant:normal;font-weight:normal;font-stretch:normal;font-size:17.3333px;font-family:'Open Sans';-inkscape-font-specification:'Open Sans';text-align:end;letter-spacing:0px;writing-mode:lr-tb;direction:ltr;white-space:pre;shape-inside:url(#rect8);display:inline;fill:#000000;fill-opacity:1;stroke:none;stroke-width:3.77953;stroke-dasharray:none;stroke-opacity:1"
       x="55.063694"
       y="0"><tspan
         x="127.65058"
         y="20.333534"
         id="tspan9"><tspan
           style="font-weight:bold;-inkscape-font-specification:'Open Sans Bold'"
           id="tspan2">Automated
</tspan></tspan><tspan
         x="99.475505"
         y="42.000158"
         id="tspan11"><tspan
           style="font-weight:bold;-inkscape-font-specification:'Open Sans Bold'"
           id="tspan10">Patient Health
</tspan></tspan><tspan
         x="166.70129"
         y="63.666782"
         id="tspan13"><tspan
           style="font-weight:bold;-inkscape-font-specification:'Open Sans Bold'"
           id="tspan12">Report</tspan></tspan></text>
  </g>
  <metadata
     id="metadata1">
    <rdf:RDF>
      <cc:Work
         rdf:about="">
        <dc:description>Letters in MedTek cross set in Orbitron from https://github.com/theleagueof/orbitron, available under the SIL Open Font License. Other letters set in OpenSans from https://github.com/googlefonts/opensans, available under the SIL Open Font License.</dc:description>
        <cc:license
            rdf:resource="http://creativecommons.org/publicdomain/zero/1.0/" />
      </cc:Work>
      <cc:License
         rdf:about="http://creativecommons.org/publicdomain/zero/1.0/">
        <cc:permits
           rdf:resource="http://creativecommons.org/ns#Reproduction" />
        <cc:permits
           rdf:resource="http://creativecommons.org/ns#Distribution" />
        <cc:permits
           rdf:resource="http://creativecommons.org/ns#DerivativeWorks" />
      </cc:License>
    </rdf:RDF>
  </metadata>
</svg>
